<mxfile host="app.diagrams.net" modified="2021-05-20T08:19:14.349Z" agent="5.0 (Windows NT 10.0; Win64; x64) AppleWebKit/537.36 (KHTML, like Gecko) Chrome/89.0.4389.114 Safari/537.36" etag="546etIYjD3rZeOlIiYy_" version="14.6.13" type="github">
  <diagram id="HCY1M6KjS0wFvEiKpBqA" name="Page-1">
    <mxGraphModel dx="1038" dy="1661" grid="1" gridSize="10" guides="1" tooltips="1" connect="1" arrows="1" fold="1" page="1" pageScale="1" pageWidth="827" pageHeight="1169" math="0" shadow="0">
      <root>
        <mxCell id="0" />
        <mxCell id="1" parent="0" />
        <mxCell id="u3lk2JayJX5QFzmLbtuY-1" value="&lt;p class=&quot;MsoNormal&quot; align=&quot;justify&quot; style=&quot;text-align: justify&quot;&gt;&lt;b&gt;&lt;span style=&quot;font-family: &amp;#34;calibri&amp;#34; ; font-weight: bold&quot;&gt;&lt;font style=&quot;font-size: 14px&quot;&gt;Grid-based&lt;/font&gt;&lt;/span&gt;&lt;/b&gt;&lt;/p&gt;&lt;p class=&quot;MsoNormal&quot; align=&quot;justify&quot; style=&quot;text-align: justify&quot;&gt;&lt;b&gt;&lt;span style=&quot;font-family: &amp;#34;calibri&amp;#34; ; font-weight: bold&quot;&gt;&lt;font style=&quot;font-size: 14px&quot;&gt;&amp;nbsp; clustering&lt;/font&gt;&lt;/span&gt;&lt;/b&gt;&lt;b&gt;&lt;span style=&quot;font-family: &amp;#34;calibri&amp;#34; ; font-weight: bold ; font-size: 14.0000pt&quot;&gt;&lt;/span&gt;&lt;/b&gt;&lt;/p&gt;" style="ellipse;whiteSpace=wrap;html=1;rounded=1;shadow=1;comic=0;labelBackgroundColor=none;strokeWidth=2;fontFamily=Verdana;fontSize=12;align=center;" vertex="1" parent="1">
          <mxGeometry x="200" y="20" width="140" height="90" as="geometry" />
        </mxCell>
        <mxCell id="u3lk2JayJX5QFzmLbtuY-2" value="&lt;span&gt;D-Stream&amp;nbsp;&lt;/span&gt;&lt;span style=&quot;font-family: &amp;#34;cmr8&amp;#34; ; font-size: 10.6267px&quot;&gt;I&lt;/span&gt;" style="whiteSpace=wrap;html=1;rounded=1;shadow=1;comic=0;labelBackgroundColor=none;strokeWidth=2;fontFamily=Verdana;fontSize=12;align=center;arcSize=50;" vertex="1" parent="1">
          <mxGeometry x="580" y="210" width="100" height="20" as="geometry" />
        </mxCell>
        <mxCell id="u3lk2JayJX5QFzmLbtuY-3" value="&lt;p class=&quot;MsoNormal&quot;&gt;&lt;span style=&quot;font-size: 12.0000pt&quot;&gt;&lt;font face=&quot;Calibri&quot;&gt;DUCstream&lt;/font&gt;&lt;/span&gt;&lt;/p&gt;" style="whiteSpace=wrap;html=1;rounded=1;shadow=1;comic=0;labelBackgroundColor=none;strokeWidth=2;fontFamily=Verdana;fontSize=12;align=center;arcSize=50;" vertex="1" parent="1">
          <mxGeometry x="490" y="70" width="100" height="20" as="geometry" />
        </mxCell>
        <mxCell id="u3lk2JayJX5QFzmLbtuY-4" value="&lt;br&gt;&lt;br&gt;&lt;br&gt;&lt;div&gt;&lt;span style=&quot;font-size: 7.97pt ; font-family: &amp;#34;cmr8&amp;#34; ; color: rgb(0 , 0 , 0)&quot;&gt;Clustering data&amp;nbsp;&lt;/span&gt;&lt;/div&gt;&lt;div&gt;&lt;span style=&quot;font-size: 7.97pt ; font-family: &amp;#34;cmr8&amp;#34; ; color: rgb(0 , 0 , 0)&quot;&gt;stream in chunks&lt;/span&gt;&lt;/div&gt;&lt;br&gt;&lt;br&gt;" style="edgeStyle=none;rounded=1;html=1;labelBackgroundColor=none;startArrow=none;startFill=0;startSize=5;endArrow=classicThin;endFill=1;endSize=5;jettySize=auto;orthogonalLoop=1;strokeColor=#B3B3B3;strokeWidth=1;fontFamily=Verdana;fontSize=12" edge="1" parent="1" source="u3lk2JayJX5QFzmLbtuY-1" target="u3lk2JayJX5QFzmLbtuY-3">
          <mxGeometry x="0.3163" y="24" relative="1" as="geometry">
            <mxPoint as="offset" />
          </mxGeometry>
        </mxCell>
        <mxCell id="u3lk2JayJX5QFzmLbtuY-5" value="" style="edgeStyle=none;rounded=1;html=1;labelBackgroundColor=none;startArrow=none;startFill=0;startSize=5;endArrow=classicThin;endFill=1;endSize=5;jettySize=auto;orthogonalLoop=1;strokeColor=#B3B3B3;strokeWidth=1;fontFamily=Verdana;fontSize=12;exitX=0.988;exitY=0.744;exitDx=0;exitDy=0;exitPerimeter=0;" edge="1" parent="1" source="u3lk2JayJX5QFzmLbtuY-1" target="u3lk2JayJX5QFzmLbtuY-2">
          <mxGeometry relative="1" as="geometry" />
        </mxCell>
        <mxCell id="u3lk2JayJX5QFzmLbtuY-6" value="" style="edgeStyle=orthogonalEdgeStyle;rounded=0;orthogonalLoop=1;jettySize=auto;html=1;" edge="1" parent="1" source="u3lk2JayJX5QFzmLbtuY-7" target="u3lk2JayJX5QFzmLbtuY-9">
          <mxGeometry relative="1" as="geometry" />
        </mxCell>
        <mxCell id="u3lk2JayJX5QFzmLbtuY-7" value="&lt;p class=&quot;MsoNormal&quot;&gt;&lt;b style=&quot;font-family: &amp;#34;helvetica&amp;#34; ; text-align: left&quot;&gt;&lt;span style=&quot;font-size: 12pt&quot;&gt;&lt;font face=&quot;Calibri&quot;&gt;CellTree&lt;/font&gt;&lt;/span&gt;&lt;/b&gt;&lt;br&gt;&lt;/p&gt;" style="whiteSpace=wrap;html=1;rounded=1;shadow=1;comic=0;labelBackgroundColor=none;strokeWidth=2;fontFamily=Verdana;fontSize=12;align=center;arcSize=50;" vertex="1" parent="1">
          <mxGeometry x="80" y="10" width="100" height="20" as="geometry" />
        </mxCell>
        <mxCell id="u3lk2JayJX5QFzmLbtuY-8" value="" style="edgeStyle=none;rounded=1;html=1;labelBackgroundColor=none;startArrow=none;startFill=0;startSize=5;endArrow=classicThin;endFill=1;endSize=5;jettySize=auto;orthogonalLoop=1;strokeColor=#B3B3B3;strokeWidth=1;fontFamily=Verdana;fontSize=12;entryX=1;entryY=0.5;entryDx=0;entryDy=0;" edge="1" parent="1" source="u3lk2JayJX5QFzmLbtuY-1" target="u3lk2JayJX5QFzmLbtuY-7">
          <mxGeometry relative="1" as="geometry">
            <mxPoint x="291.40703766661727" y="11.616421222106965" as="sourcePoint" />
            <mxPoint x="264.3478260869565" y="-50" as="targetPoint" />
          </mxGeometry>
        </mxCell>
        <mxCell id="u3lk2JayJX5QFzmLbtuY-9" value="&lt;p class=&quot;MsoNormal&quot;&gt;&lt;span style=&quot;font-family: &amp;#34;calibri&amp;#34; ; font-size: 16px ; text-align: left&quot;&gt;Cell*Tree&lt;/span&gt;&lt;br&gt;&lt;/p&gt;" style="whiteSpace=wrap;html=1;rounded=1;shadow=1;comic=0;labelBackgroundColor=none;strokeWidth=2;fontFamily=Verdana;fontSize=12;align=center;arcSize=50;" vertex="1" parent="1">
          <mxGeometry x="80" y="-60" width="100" height="20" as="geometry" />
        </mxCell>
        <mxCell id="u3lk2JayJX5QFzmLbtuY-10" value="&lt;p class=&quot;MsoNormal&quot;&gt;&lt;span style=&quot;font-family: &amp;#34;helvetica&amp;#34; ; text-align: left&quot;&gt;&lt;span style=&quot;font-size: 12pt&quot;&gt;&lt;font face=&quot;Calibri&quot;&gt;FGCH&lt;/font&gt;&lt;/span&gt;&lt;/span&gt;&lt;br&gt;&lt;/p&gt;" style="whiteSpace=wrap;html=1;rounded=1;shadow=1;comic=0;labelBackgroundColor=none;strokeWidth=2;fontFamily=Verdana;fontSize=12;align=center;arcSize=50;" vertex="1" parent="1">
          <mxGeometry x="100" y="170" width="100" height="20" as="geometry" />
        </mxCell>
        <mxCell id="u3lk2JayJX5QFzmLbtuY-11" value="" style="edgeStyle=none;rounded=1;html=1;labelBackgroundColor=none;startArrow=none;startFill=0;startSize=5;endArrow=classicThin;endFill=1;endSize=5;jettySize=auto;orthogonalLoop=1;strokeColor=#B3B3B3;strokeWidth=1;fontFamily=Verdana;fontSize=12;entryX=0.668;entryY=-0.21;entryDx=0;entryDy=0;exitX=0.289;exitY=0.962;exitDx=0;exitDy=0;exitPerimeter=0;entryPerimeter=0;" edge="1" parent="1" source="u3lk2JayJX5QFzmLbtuY-1" target="u3lk2JayJX5QFzmLbtuY-10">
          <mxGeometry relative="1" as="geometry">
            <mxPoint x="224.74534478365695" y="47.37267239182847" as="sourcePoint" />
            <mxPoint x="190" y="30" as="targetPoint" />
          </mxGeometry>
        </mxCell>
        <mxCell id="u3lk2JayJX5QFzmLbtuY-12" value="&lt;p class=&quot;MsoNormal&quot;&gt;&lt;span style=&quot;font-family: &amp;#34;advpcourier&amp;#34; ; font-size: 11.2909px ; text-align: left&quot;&gt;PKSStream&lt;/span&gt;&lt;br&gt;&lt;/p&gt;" style="whiteSpace=wrap;html=1;rounded=1;shadow=1;comic=0;labelBackgroundColor=none;strokeWidth=2;fontFamily=Verdana;fontSize=12;align=center;arcSize=50;" vertex="1" parent="1">
          <mxGeometry x="280" y="160" width="100" height="20" as="geometry" />
        </mxCell>
        <mxCell id="u3lk2JayJX5QFzmLbtuY-13" value="" style="edgeStyle=none;rounded=1;html=1;labelBackgroundColor=none;startArrow=none;startFill=0;startSize=5;endArrow=classicThin;endFill=1;endSize=5;jettySize=auto;orthogonalLoop=1;strokeColor=#B3B3B3;strokeWidth=1;fontFamily=Verdana;fontSize=12;entryX=0.5;entryY=0;entryDx=0;entryDy=0;exitX=0.5;exitY=1;exitDx=0;exitDy=0;" edge="1" parent="1" source="u3lk2JayJX5QFzmLbtuY-1" target="u3lk2JayJX5QFzmLbtuY-12">
          <mxGeometry relative="1" as="geometry">
            <mxPoint x="250.46000000000004" y="116.57999999999993" as="sourcePoint" />
            <mxPoint x="176.80000000000018" y="175.79999999999995" as="targetPoint" />
          </mxGeometry>
        </mxCell>
      </root>
    </mxGraphModel>
  </diagram>
</mxfile>
